<svg width="183" height="807" viewBox="0 0 183 807" fill="none" xmlns="http://www.w3.org/2000/svg">
<path d="M142.38 694.06L143.247 694.558L143.251 694.551L143.255 694.544L142.38 694.06ZM119.5 710.56L119.158 709.62L119.15 709.623L119.141 709.627L119.5 710.56ZM105.2 716.06L104.841 715.127L104.2 715.373V716.06H105.2ZM105.2 777.66H104.2V778.324L104.812 778.582L105.2 777.66ZM147 795.26H148V794.596L147.388 794.338L147 795.26ZM147 805.16L146.609 806.081L148 806.671V805.16H147ZM1.79999 743.56H0.799994V744.222L1.40944 744.481L1.79999 743.56ZM1.79999 736.96L1.41968 736.035L0.799994 736.29V736.96H1.79999ZM119.5 688.56L119.88 689.485L119.888 689.482L119.896 689.478L119.5 688.56ZM137.1 678.22L137.807 678.927L137.815 678.919L137.823 678.91L137.1 678.22ZM142.6 664.36V663.36H141.693L141.605 664.263L142.6 664.36ZM147 664.36L147.964 664.092L147.76 663.36H147V664.36ZM96.4 774.36L96.0042 775.278L97.4 775.88V774.36H96.4ZM96.4 720.46H97.4V718.964L96.0176 719.536L96.4 720.46ZM32.6 746.86L32.2176 745.936L30.03 746.841L32.2042 747.778L32.6 746.86ZM147.1 673.16C147.1 680.011 145.246 686.813 141.505 693.576L143.255 694.544C147.14 687.521 149.1 680.389 149.1 673.16H147.1ZM141.513 693.562C137.718 700.169 130.339 705.555 119.158 709.62L119.842 711.5C131.248 707.352 139.122 701.738 143.247 694.558L141.513 693.562ZM119.141 709.627L104.841 715.127L105.559 716.993L119.859 711.493L119.141 709.627ZM104.2 716.06V777.66H106.2V716.06H104.2ZM104.812 778.582L146.612 796.182L147.388 794.338L105.588 776.738L104.812 778.582ZM146 795.26V805.16H148V795.26H146ZM147.391 804.239L2.19054 742.639L1.40944 744.481L146.609 806.081L147.391 804.239ZM2.79999 743.56V736.96H0.799994L0.799994 743.56H2.79999ZM2.18031 737.885L119.88 689.485L119.12 687.635L1.41968 736.035L2.18031 737.885ZM119.896 689.478C128.424 685.802 134.439 682.295 137.807 678.927L136.393 677.513C133.307 680.598 127.589 683.984 119.104 687.642L119.896 689.478ZM137.823 678.91C141.105 675.473 142.995 670.615 143.595 664.457L141.605 664.263C141.032 670.132 139.255 674.514 136.377 677.53L137.823 678.91ZM142.6 665.36H147V663.36H142.6V665.36ZM146.036 664.628C146.742 667.167 147.1 670.008 147.1 673.16H149.1C149.1 669.858 148.725 666.833 147.964 664.092L146.036 664.628ZM97.4 774.36V720.46H95.4V774.36H97.4ZM96.0176 719.536L32.2176 745.936L32.9823 747.784L96.7823 721.384L96.0176 719.536ZM32.2042 747.778L96.0042 775.278L96.7958 773.442L32.9958 745.942L32.2042 747.778ZM138.2 652.532H139.2V651.885L138.61 651.619L138.2 652.532ZM104.98 642.632L104.802 643.616L104.812 643.617L104.98 642.632ZM53.5 642.412L53.9886 643.284L53.9963 643.28L54.0039 643.275L53.5 642.412ZM48 654.732V655.732H49V654.732H48ZM43.6 654.732H42.6V655.732H43.6V654.732ZM43.6 566.732V565.732H42.6V566.732H43.6ZM138.2 566.732V567.732H139.2V566.732H138.2ZM140.4 552.432L141.107 553.139L140.4 552.432ZM181.1 550.232H182.1V549.232H181.1V550.232ZM181.1 559.032L181.195 560.027L182.1 559.941V559.032H181.1ZM154.7 566.072L154.145 565.239L154.134 565.247L154.7 566.072ZM154.7 650.992L154.134 651.816L154.145 651.824L154.7 650.992ZM181.1 658.032H182.1V657.122L181.195 657.036L181.1 658.032ZM181.1 666.832V667.832H182.1V666.832H181.1ZM138.2 586.532H139.2V585.532H138.2V586.532ZM52.4 586.532V585.532H51.4V586.532H52.4ZM52.4 625.032H51.4V626.032H52.4V625.032ZM101.68 627.892L101.82 626.901L101.818 626.901L101.68 627.892ZM138.2 637.132L137.835 638.063L139.2 638.598V637.132H138.2ZM145.9 665.832C143.947 665.832 142.374 665.191 141.107 663.924L139.693 665.339C141.359 667.005 143.453 667.832 145.9 667.832V665.832ZM141.107 663.924C139.84 662.658 139.2 661.084 139.2 659.132H137.2C137.2 661.579 138.026 663.672 139.693 665.339L141.107 663.924ZM139.2 659.132V652.532H137.2V659.132H139.2ZM138.61 651.619C128.406 647.035 117.25 643.712 105.148 641.646L104.812 643.617C116.763 645.658 127.754 648.935 137.79 653.444L138.61 651.619ZM105.158 641.648C92.9321 639.438 81.2124 638.332 70 638.332V640.332C81.0809 640.332 92.6812 641.425 104.802 643.616L105.158 641.648ZM70 638.332C62.4688 638.332 56.7499 639.358 52.9961 641.548L54.0039 643.275C57.2901 641.358 62.5712 640.332 70 640.332V638.332ZM53.0114 641.539C48.8945 643.845 47 648.396 47 654.732H49C49 648.747 50.7722 645.085 53.9886 643.284L53.0114 641.539ZM48 653.732H43.6V655.732H48V653.732ZM44.6 654.732L44.6 566.732H42.6L42.6 654.732H44.6ZM43.6 567.732H138.2V565.732H43.6V567.732ZM139.2 566.732V557.932H137.2V566.732H139.2ZM139.2 557.932C139.2 555.979 139.84 554.406 141.107 553.139L139.693 551.724C138.026 553.391 137.2 555.484 137.2 557.932H139.2ZM141.107 553.139C142.374 551.872 143.947 551.232 145.9 551.232V549.232C143.453 549.232 141.359 550.058 139.693 551.724L141.107 553.139ZM145.9 551.232H181.1V549.232H145.9V551.232ZM180.1 550.232V559.032H182.1V550.232H180.1ZM181.005 558.036C168.649 559.213 159.64 561.576 154.145 565.24L155.255 566.904C160.32 563.527 168.911 561.197 181.195 560.027L181.005 558.036ZM154.134 565.247C148.684 568.984 146 574.674 146 582.132H148C148 575.216 150.449 570.199 155.266 566.896L154.134 565.247ZM146 582.132V634.932H148V582.132H146ZM146 634.932C146 642.389 148.684 648.079 154.134 651.816L155.266 650.167C150.449 646.864 148 641.847 148 634.932H146ZM154.145 651.824C159.64 655.487 168.649 657.85 181.005 659.027L181.195 657.036C168.911 655.866 160.32 653.536 155.255 650.16L154.145 651.824ZM180.1 658.032V666.832H182.1V658.032H180.1ZM181.1 665.832H145.9V667.832H181.1V665.832ZM138.2 585.532H52.4V587.532H138.2V585.532ZM51.4 586.532V625.032H53.4V586.532H51.4ZM52.4 626.032C71.5836 626.032 87.9614 626.984 101.542 628.882L101.818 626.901C88.1186 624.986 71.643 624.032 52.4 624.032V626.032ZM101.54 628.882C114.969 630.779 127.065 633.842 137.835 638.063L138.565 636.201C127.628 631.914 115.378 628.817 101.82 626.901L101.54 628.882ZM139.2 637.132V586.532H137.2V637.132H139.2ZM53.5 529.923L53.9886 530.795L53.9963 530.791L54.0039 530.787L53.5 529.923ZM48 544.443V545.443H49V544.443H48ZM43.6 544.443H42.6V545.443H43.6V544.443ZM49.76 460.403L50.6442 460.87L49.76 460.403ZM85.18 454.023L85.8725 453.301L85.8655 453.295L85.8583 453.288L85.18 454.023ZM93.1 470.743L92.1217 470.95L94.0825 470.929L93.1 470.743ZM102.12 451.163L102.839 451.858L102.844 451.852L102.85 451.846L102.12 451.163ZM140.62 456.663L141.505 456.196L141.501 456.191L140.62 456.663ZM147 526.843V527.843H148V526.843H147ZM83.86 476.463L83.0445 477.042L83.049 477.048L83.0536 477.054L83.86 476.463ZM56.14 476.023L56.9367 476.627L56.14 476.023ZM51.96 500.223L52.9478 500.067L51.96 500.223ZM53.5 507.043L52.5513 507.359L52.7792 508.043H53.5V507.043ZM88.7 507.043V508.043H89.7V507.043H88.7ZM97.5 507.043H96.5V508.043H97.5V507.043ZM137.1 507.043V508.043H137.821L138.049 507.359L137.1 507.043ZM138.64 500.223L137.652 500.067L138.64 500.223ZM70 525.843C62.4688 525.843 56.7499 526.869 52.9961 529.059L54.0039 530.787C57.2901 528.87 62.5712 527.843 70 527.843V525.843ZM53.0114 529.05C48.8945 531.356 47 535.907 47 542.243H49C49 536.259 50.7722 532.597 53.9886 530.795L53.0114 529.05ZM47 542.243V544.443H49V542.243H47ZM48 543.443H43.6V545.443H48V543.443ZM44.6 544.443L44.6 490.543H42.6L42.6 544.443H44.6ZM44.6 490.543C44.6 478.324 46.6379 468.453 50.6442 460.87L48.8758 459.936C44.6687 467.899 42.6 478.122 42.6 490.543H44.6ZM50.6442 460.87C52.6211 457.128 55.2097 454.362 58.3992 452.524C61.5923 450.685 65.4459 449.743 70 449.743V447.743C65.1674 447.743 60.9544 448.744 57.4008 450.791C53.8436 452.841 51.0055 455.904 48.8758 459.936L50.6442 460.87ZM70 449.743C76.1123 449.743 80.9111 451.443 84.5017 454.758L85.8583 453.288C81.8222 449.562 76.5011 447.743 70 447.743V449.743ZM84.4875 454.744C87.9511 458.069 90.5292 463.422 92.1217 470.95L94.0783 470.536C92.4441 462.811 89.7422 457.016 85.8725 453.301L84.4875 454.744ZM94.0825 470.929C95.6724 462.546 98.6159 456.222 102.839 451.858L101.401 450.467C96.8241 455.197 93.7542 461.927 92.1175 470.556L94.0825 470.929ZM102.85 451.846C106.902 447.515 112.058 445.343 118.4 445.343V443.343C111.542 443.343 105.845 445.718 101.39 450.48L102.85 451.846ZM118.4 445.343C123.476 445.343 127.756 446.343 131.28 448.297C134.799 450.248 137.62 453.18 139.739 457.135L141.501 456.191C139.22 451.932 136.138 448.704 132.25 446.548C128.368 444.396 123.738 443.343 118.4 443.343V445.343ZM139.735 457.129C143.881 464.991 146 476.099 146 490.543H148C148 475.947 145.866 464.468 141.505 456.196L139.735 457.129ZM146 490.543V526.843H148V490.543H146ZM147 525.843H70V527.843H147V525.843ZM89.7 494.943C89.7 486.902 88.0642 480.505 84.6664 475.871L83.0536 477.054C86.1091 481.221 87.7 487.143 87.7 494.943H89.7ZM84.6755 475.884C81.2447 471.05 76.3075 468.643 70 468.643V470.643C75.7192 470.643 80.022 472.783 83.0445 477.042L84.6755 475.884ZM70 468.643C63.719 468.643 58.7848 470.882 55.3433 475.418L56.9367 476.627C59.9485 472.657 64.2543 470.643 70 470.643V468.643ZM55.3433 475.418C51.9507 479.89 50.3 485.695 50.3 492.743H52.3C52.3 486.004 53.8759 480.662 56.9367 476.627L55.3433 475.418ZM50.3 492.743C50.3 495.007 50.5262 497.554 50.9722 500.379L52.9478 500.067C52.5138 497.318 52.3 494.878 52.3 492.743H50.3ZM50.9722 500.379C51.4169 503.195 51.9407 505.527 52.5513 507.359L54.4487 506.727C53.8859 505.038 53.3831 502.824 52.9478 500.067L50.9722 500.379ZM53.5 508.043H88.7V506.043H53.5V508.043ZM89.7 507.043V494.943H87.7V507.043H89.7ZM140.3 492.743C140.3 483.478 138.545 476.346 134.871 471.513C131.158 466.627 125.606 464.243 118.4 464.243V466.243C125.128 466.243 130.025 468.442 133.279 472.723C136.572 477.056 138.3 483.674 138.3 492.743H140.3ZM118.4 464.243C111.165 464.243 105.608 466.833 101.907 472.092C98.2514 477.287 96.5 484.956 96.5 494.943H98.5C98.5 485.13 100.232 477.948 103.543 473.243C106.808 468.603 111.702 466.243 118.4 466.243V464.243ZM96.5 494.943V507.043H98.5V494.943H96.5ZM97.5 508.043H137.1V506.043H97.5V508.043ZM138.049 507.359C138.659 505.527 139.183 503.195 139.628 500.379L137.652 500.067C137.217 502.824 136.714 505.038 136.151 506.727L138.049 507.359ZM139.628 500.379C140.074 497.554 140.3 495.007 140.3 492.743H138.3C138.3 494.878 138.086 497.318 137.652 500.067L139.628 500.379ZM142.16 402.328L142.995 402.879L143.002 402.867L142.16 402.328ZM122.58 419.048L122.159 418.141L122.58 419.048ZM68.02 419.048L67.5989 419.955L68.02 419.048ZM48.66 402.328L49.5023 401.789L49.4946 401.777L48.66 402.328ZM48.66 350.408L49.4947 350.959L49.5023 350.947L48.66 350.408ZM68.02 333.688L67.5989 332.781L68.02 333.688ZM122.58 333.688L122.159 334.595L122.58 333.688ZM142.16 350.408L143.002 349.869L142.995 349.857L142.16 350.408ZM134.46 362.068L133.728 362.749L133.734 362.756L133.74 362.762L134.46 362.068ZM118.18 352.388L117.858 353.335L117.867 353.338L117.876 353.341L118.18 352.388ZM72.42 352.388L72.724 353.341L72.7332 353.338L72.7423 353.335L72.42 352.388ZM56.14 362.068L56.8598 362.762L56.8659 362.756L56.8719 362.749L56.14 362.068ZM56.14 390.888L55.4081 391.569L55.4141 391.576L55.4202 391.582L56.14 390.888ZM72.42 400.568L72.0977 401.515L72.1068 401.518L72.116 401.521L72.42 400.568ZM118.18 400.568L118.484 401.521L118.493 401.518L118.502 401.515L118.18 400.568ZM134.46 390.888L135.18 391.582L135.186 391.576L135.192 391.569L134.46 390.888ZM148.2 376.368C148.2 386.179 145.894 394.639 141.318 401.789L143.002 402.867C147.813 395.35 150.2 386.504 150.2 376.368H148.2ZM141.325 401.777C136.591 408.951 130.209 414.403 122.159 418.141L123.001 419.955C131.377 416.066 138.049 410.372 142.995 402.879L141.325 401.777ZM122.159 418.141C114.09 421.887 105.143 423.768 95.3 423.768V425.768C105.404 425.768 114.643 423.836 123.001 419.955L122.159 418.141ZM95.3 423.768C85.4572 423.768 76.5096 421.887 68.4411 418.141L67.5989 419.955C75.957 423.836 85.1961 425.768 95.3 425.768V423.768ZM68.4411 418.141C60.393 414.404 54.0888 408.955 49.5023 401.789L47.8177 402.867C52.6178 410.367 59.2203 416.065 67.5989 419.955L68.4411 418.141ZM49.4946 401.777C44.7766 394.629 42.4 386.173 42.4 376.368H40.4C40.4 386.51 42.8634 395.361 47.8254 402.879L49.4946 401.777ZM42.4 376.368C42.4 366.563 44.7766 358.107 49.4946 350.959L47.8254 349.857C42.8634 357.375 40.4 366.226 40.4 376.368H42.4ZM49.5023 350.947C54.0888 343.781 60.393 338.332 68.4411 334.595L67.5989 332.781C59.2203 336.671 52.6178 342.369 47.8177 349.869L49.5023 350.947ZM68.4411 334.595C76.5096 330.849 85.4572 328.968 95.3 328.968V326.968C85.1961 326.968 75.957 328.9 67.5989 332.781L68.4411 334.595ZM95.3 328.968C105.143 328.968 114.09 330.849 122.159 334.595L123.001 332.781C114.643 328.9 105.404 326.968 95.3 326.968V328.968ZM122.159 334.595C130.209 338.333 136.591 343.785 141.325 350.959L142.995 349.857C138.049 342.364 131.377 336.67 123.001 332.781L122.159 334.595ZM141.318 350.947C145.894 358.097 148.2 366.557 148.2 376.368H150.2C150.2 366.232 147.813 357.386 143.002 349.869L141.318 350.947ZM141.4 376.368C141.4 370.668 139.309 365.656 135.18 361.374L133.74 362.762C137.531 366.693 139.4 371.215 139.4 376.368H141.4ZM135.192 361.387C131.09 356.98 125.501 353.675 118.484 351.435L117.876 353.341C124.645 355.501 129.91 358.649 133.728 362.749L135.192 361.387ZM118.502 351.441C111.491 349.055 103.754 347.868 95.3 347.868V349.868C103.566 349.868 111.082 351.028 117.858 353.335L118.502 351.441ZM95.3 347.868C86.8463 347.868 79.1089 349.055 72.0977 351.441L72.7423 353.335C79.5177 351.028 87.0337 349.868 95.3 349.868V347.868ZM72.116 351.435C65.0987 353.675 59.5104 356.98 55.4081 361.387L56.8719 362.749C60.6895 358.649 65.9547 355.501 72.724 353.341L72.116 351.435ZM55.4202 361.374C51.2906 365.656 49.2 370.668 49.2 376.368H51.2C51.2 371.215 53.0694 366.693 56.8598 362.762L55.4202 361.374ZM49.2 376.368C49.2 382.066 51.2892 387.145 55.4081 391.569L56.8719 390.207C53.0708 386.124 51.2 381.523 51.2 376.368H49.2ZM55.4202 391.582C59.517 395.831 65.0942 399.13 72.0977 401.515L72.7423 399.621C65.9592 397.312 60.683 394.159 56.8598 390.194L55.4202 391.582ZM72.116 401.521C79.1215 403.756 86.8525 404.868 95.3 404.868V402.868C87.0275 402.868 79.5052 401.78 72.724 399.615L72.116 401.521ZM95.3 404.868C103.747 404.868 111.479 403.756 118.484 401.521L117.876 399.615C111.095 401.78 103.573 402.868 95.3 402.868V404.868ZM118.502 401.515C125.506 399.13 131.083 395.831 135.18 391.582L133.74 390.194C129.917 394.159 124.641 397.312 117.858 399.621L118.502 401.515ZM135.192 391.569C139.311 387.145 141.4 382.066 141.4 376.368H139.4C139.4 381.523 137.529 386.124 133.728 390.207L135.192 391.569ZM131.6 253.328L132.221 254.111L132.225 254.109L131.6 253.328ZM99.7 278.628L99.0786 277.844L96.8298 279.628H99.7V278.628ZM147 278.628H148V277.628H147V278.628ZM147 298.428V299.428H148V298.428H147ZM53.5 301.508L53.9886 302.38L53.9963 302.376L54.0039 302.372L53.5 301.508ZM48 318.228V319.228H49V318.228H48ZM43.6 318.228H42.6V319.228H43.6V318.228ZM45.8 286.328L46.6742 286.813L46.6899 286.785L46.7037 286.756L45.8 286.328ZM96.4 278.628V279.628H99.5205L96.9812 277.814L96.4 278.628ZM57.9 251.128L57.3164 251.94L57.3188 251.942L57.9 251.128ZM47.34 239.468L48.2224 238.997L48.2168 238.987L47.34 239.468ZM43.6 217.028V216.028H42.6V217.028H43.6ZM49.1 217.028H50.1V216.028H49.1V217.028ZM59 236.828L58.4205 237.643L58.4213 237.643L59 236.828ZM93.1 261.028L92.5213 261.843L93.1333 262.278L93.7214 261.811L93.1 261.028ZM125 235.728L124.386 234.938L124.379 234.944L125 235.728ZM137.32 223.628L138.124 224.223L138.129 224.216L138.134 224.209L137.32 223.628ZM142.82 210.428V209.428H141.964L141.832 210.273L142.82 210.428ZM147 210.428L147.91 210.014L147.644 209.428H147V210.428ZM148.2 221.428C148.2 232.926 142.54 243.295 130.975 252.547L132.225 254.109C144.127 244.587 150.2 233.69 150.2 221.428H148.2ZM130.979 252.544L99.0786 277.844L100.321 279.411L132.221 254.111L130.979 252.544ZM99.7 279.628H147V277.628H99.7V279.628ZM146 278.628V298.428H148V278.628H146ZM147 297.428H70V299.428H147V297.428ZM70 297.428C62.4688 297.428 56.7499 298.454 52.9961 300.644L54.0039 302.372C57.2901 300.455 62.5712 299.428 70 299.428V297.428ZM53.0114 300.635C48.8945 302.941 47 307.492 47 313.828H49C49 307.844 50.7722 304.182 53.9886 302.38L53.0114 300.635ZM47 313.828V318.228H49V313.828H47ZM48 317.228H43.6V319.228H48V317.228ZM44.6 318.228V298.428H42.6V318.228H44.6ZM44.6 298.428C44.6 293.055 45.3323 289.229 46.6742 286.813L44.9258 285.842C43.3344 288.707 42.6 292.947 42.6 298.428H44.6ZM46.7037 286.756C47.8771 284.279 50.1117 282.452 53.5848 281.34L52.9752 279.435C49.1149 280.671 46.3629 282.803 44.8963 285.9L46.7037 286.756ZM53.5848 281.34C57.099 280.216 62.5452 279.628 70 279.628V277.628C62.4948 277.628 56.7943 278.213 52.9752 279.435L53.5848 281.34ZM70 279.628H96.4V277.628H70V279.628ZM96.9812 277.814L58.4812 250.314L57.3188 251.942L95.8188 279.442L96.9812 277.814ZM58.4836 250.316C53.8949 247.018 50.4863 243.242 48.2224 238.997L46.4576 239.938C48.8871 244.494 52.5184 248.491 57.3164 251.94L58.4836 250.316ZM48.2168 238.987C45.825 234.625 44.6 229.156 44.6 222.528H42.6C42.6 229.393 43.8683 235.217 46.4632 239.949L48.2168 238.987ZM44.6 222.528V217.028H42.6V222.528H44.6ZM43.6 218.028H49.1V216.028H43.6V218.028ZM48.1 217.028C48.1 225.839 51.5414 232.751 58.4205 237.643L59.5795 236.013C53.2586 231.518 50.1 225.23 50.1 217.028H48.1ZM58.4213 237.643L92.5213 261.843L93.6787 260.212L59.5787 236.012L58.4213 237.643ZM93.7214 261.811L125.621 236.511L124.379 234.944L92.4786 260.244L93.7214 261.811ZM125.614 236.517C130.942 232.373 135.121 228.277 138.124 224.223L136.516 223.033C133.653 226.899 129.618 230.869 124.386 234.938L125.614 236.517ZM138.134 224.209C141.152 219.984 143.049 215.439 143.808 210.582L141.832 210.273C141.124 214.803 139.355 219.059 136.506 223.047L138.134 224.209ZM142.82 211.428H147V209.428H142.82V211.428ZM146.09 210.842C147.489 213.919 148.2 217.441 148.2 221.428H150.2C150.2 217.201 149.445 213.39 147.91 210.014L146.09 210.842ZM146.34 182.472L147.261 182.863L147.266 182.851L147.27 182.839L146.34 182.472ZM136.44 195.012L137.036 195.815L137.044 195.809L137.052 195.803L136.44 195.012ZM94.64 184.672L93.7283 185.083L93.7305 185.088L94.64 184.672ZM87.6 137.372H88.6V136.372H87.6V137.372ZM58.12 143.312L57.52 142.512L58.12 143.312ZM54.38 176.312L53.5622 176.888L54.38 176.312ZM68.9 184.672H69.9V183.879L69.1279 183.699L68.9 184.672ZM68.9 194.572V195.572H69.9V194.572H68.9ZM57.24 193.692L57.446 192.714L57.4361 192.712L57.24 193.692ZM49.1 189.072L49.8071 188.365L49.1 189.072ZM43.38 176.092L44.3615 175.901L44.3597 175.892L44.3578 175.883L43.38 176.092ZM51.08 127.912L51.8101 128.596L51.8178 128.587L51.08 127.912ZM147 117.572H148V116.572H147V117.572ZM147 128.572L147.614 129.362L148 129.061V128.572H147ZM137.1 136.272L136.486 135.483L136.1 135.783V136.272H137.1ZM137.1 137.372H136.1V137.86L136.484 138.16L137.1 137.372ZM145.68 149.032L146.589 148.617L145.68 149.032ZM135.78 146.172L134.971 146.76L135.78 146.172ZM126.1 137.372L126.641 136.531L126.394 136.372H126.1V137.372ZM96.4 137.372V136.372H95.4V137.372H96.4ZM102.56 169.712L103.407 169.181L103.402 169.174L103.398 169.167L102.56 169.712ZM134.02 173.232L134.754 173.912L134.767 173.898L134.779 173.883L134.02 173.232ZM148.2 168.172C148.2 172.727 147.275 177.37 145.41 182.106L147.27 182.839C149.218 177.895 150.2 173.004 150.2 168.172H148.2ZM145.419 182.082C143.439 186.75 140.252 190.796 135.828 194.222L137.052 195.803C141.721 192.188 145.134 187.875 147.261 182.863L145.419 182.082ZM135.844 194.209C131.518 197.419 125.734 199.072 118.4 199.072V201.072C126.026 201.072 132.269 199.352 137.036 195.815L135.844 194.209ZM118.4 199.072C112.984 199.072 108.414 197.827 104.644 195.383C100.872 192.939 97.8327 189.251 95.5495 184.257L93.7305 185.088C96.1406 190.36 99.4075 194.373 103.556 197.062C107.706 199.751 112.669 201.072 118.4 201.072V199.072ZM95.5517 184.261C90.9371 174.023 88.6 160.611 88.6 143.972H86.6C86.6 160.774 88.9562 174.495 93.7283 185.083L95.5517 184.261ZM88.6 143.972V137.372H86.6V143.972H88.6ZM87.6 136.372C80.3729 136.372 74.2521 136.87 69.2525 137.877C64.262 138.883 60.3247 140.409 57.52 142.512L58.72 144.112C61.1953 142.256 64.8113 140.812 69.6475 139.838C74.4746 138.865 80.4537 138.372 87.6 138.372V136.372ZM57.52 142.512C51.9521 146.688 49.2 152.726 49.2 160.472H51.2C51.2 153.259 53.7279 147.856 58.72 144.112L57.52 142.512ZM49.2 160.472C49.2 167.205 50.6209 172.708 53.5622 176.888L55.1978 175.737C52.5658 171.997 51.2 166.939 51.2 160.472H49.2ZM53.5622 176.888C56.5431 181.124 61.6483 184.002 68.6721 185.646L69.1279 183.699C62.3651 182.116 57.7903 179.421 55.1978 175.737L53.5622 176.888ZM67.9 184.672V194.572H69.9V184.672H67.9ZM68.9 193.572C63.9393 193.572 60.1327 193.279 57.446 192.714L57.034 194.671C59.9206 195.279 63.8874 195.572 68.9 195.572V193.572ZM57.4361 192.712C54.7289 192.17 52.1863 190.744 49.8071 188.365L48.3929 189.779C51.0004 192.387 53.8844 194.041 57.0439 194.673L57.4361 192.712ZM49.8071 188.365C47.3719 185.93 45.5188 181.832 44.3615 175.901L42.3985 176.284C43.5878 182.379 45.5481 186.935 48.3929 189.779L49.8071 188.365ZM44.3578 175.883C43.0544 169.801 42.4 163.198 42.4 156.072H40.4C40.4 163.32 41.0655 170.064 42.4022 176.302L44.3578 175.883ZM42.4 156.072C42.4 144.378 45.5718 135.259 51.81 128.596L50.35 127.229C43.6815 134.352 40.4 144.007 40.4 156.072H42.4ZM51.8178 128.587C57.8203 122.026 69.6069 118.572 87.6 118.572V116.572C69.5131 116.572 56.953 120.012 50.3422 127.237L51.8178 128.587ZM87.6 118.572H147V116.572H87.6V118.572ZM146 117.572V128.572H148V117.572H146ZM146.386 127.783L136.486 135.483L137.714 137.062L147.614 129.362L146.386 127.783ZM136.1 136.272V137.372H138.1V136.272H136.1ZM136.484 138.16C139.697 140.675 142.47 144.416 144.771 149.448L146.589 148.617C144.197 143.382 141.249 139.35 137.716 136.585L136.484 138.16ZM144.771 149.448C147.04 154.414 148.2 160.641 148.2 168.172H150.2C150.2 160.45 149.013 153.918 146.589 148.617L144.771 149.448ZM140.3 158.272C140.3 153.267 139.084 149.016 136.589 145.584L134.971 146.76C137.169 149.782 138.3 153.598 138.3 158.272H140.3ZM136.589 145.584C134.155 142.238 130.829 139.224 126.641 136.531L125.559 138.214C129.584 140.801 132.712 143.654 134.971 146.76L136.589 145.584ZM126.1 136.372H96.4V138.372H126.1V136.372ZM95.4 137.372V143.972H97.4V137.372H95.4ZM95.4 143.972C95.4 154.938 97.4726 163.732 101.722 170.258L103.398 169.167C99.4341 163.079 97.4 154.713 97.4 143.972H95.4ZM101.713 170.244C105.828 176.798 111.407 180.172 118.4 180.172V178.172C112.193 178.172 107.212 175.24 103.407 169.181L101.713 170.244ZM118.4 180.172C125.351 180.172 130.853 178.125 134.754 173.912L133.286 172.553C129.854 176.26 124.943 178.172 118.4 178.172V180.172ZM134.779 173.883C138.468 169.579 140.3 164.356 140.3 158.272H138.3C138.3 163.922 136.612 168.672 133.261 172.582L134.779 173.883ZM52.4 57.8544V56.8544H51.4V57.8544H52.4ZM58.34 85.5744L59.0846 84.9068L59.0783 84.8998L59.0719 84.8929L58.34 85.5744ZM74.4 91.9543H75.4V90.9543H74.4V91.9543ZM74.4 96.3544V97.3544H75.4V96.3544H74.4ZM43.6 1.75439V0.754395H42.6V1.75439H43.6ZM52.4 1.75439H53.4V0.754395H52.4V1.75439ZM52.4 38.0544H51.4V39.0544H52.4V38.0544ZM147 38.0544H148V37.0544H147V38.0544ZM147 57.8544V58.8544H148V57.8544H147ZM51.4 57.8544V68.8544H53.4V57.8544H51.4ZM51.4 68.8544C51.4 75.9506 53.4445 81.7838 57.6081 86.2558L59.0719 84.8929C55.3155 80.8583 53.4 75.5449 53.4 68.8544H51.4ZM57.5954 86.2419C61.6373 90.7501 67.2864 92.9543 74.4 92.9543V90.9543C67.7269 90.9543 62.6694 88.9053 59.0846 84.9068L57.5954 86.2419ZM73.4 91.9543V96.3544H75.4V91.9543H73.4ZM74.4 95.3544H61.2V97.3544H74.4V95.3544ZM61.2 95.3544C55.472 95.3544 51.3621 94.0106 48.6839 91.4998C46.0179 89.0004 44.6 85.1831 44.6 79.8544H42.6C42.6 85.5256 44.1154 89.9583 47.3161 92.9589C50.5046 95.9481 55.1947 97.3544 61.2 97.3544V95.3544ZM44.6 79.8544L44.6 1.75439H42.6L42.6 79.8544H44.6ZM43.6 2.75439H52.4V0.754395H43.6V2.75439ZM51.4 1.75439V38.0544H53.4V1.75439H51.4ZM52.4 39.0544H147V37.0544H52.4V39.0544ZM146 38.0544V57.8544H148V38.0544H146ZM147 56.8544H52.4V58.8544H147V56.8544Z" fill="#000748" fill-opacity="0.3"/>
</svg>
