<svg width="33" height="33" viewBox="0 0 33 33" fill="none" xmlns="http://www.w3.org/2000/svg">
<circle cx="16.5" cy="16.5" r="16.5" fill="#7C80A0"/>
<path d="M16.375 24.6875C16.6562 25.125 17.3125 25.125 17.5938 24.6875C22.1562 18.125 23 17.4375 23 15C23 11.6875 20.3125 9 17 9C13.6562 9 11 11.6875 11 15C11 17.4375 11.8125 18.125 16.375 24.6875ZM17 17.5C15.5938 17.5 14.5 16.4062 14.5 15C14.5 13.625 15.5938 12.5 17 12.5C18.375 12.5 19.5 13.625 19.5 15C19.5 16.4062 18.375 17.5 17 17.5Z" fill="white"/>
</svg>
