<svg width="33" height="33" viewBox="0 0 33 33" fill="none" xmlns="http://www.w3.org/2000/svg">
<circle cx="16.5" cy="16.5" r="16.5" fill="#7C80A0"/>
<path d="M9.59375 9.78125L12.8438 9.03125C13.1875 8.9375 13.5625 9.125 13.7188 9.46875L15.2188 12.9688C15.3438 13.2812 15.25 13.625 15 13.8438L13.0938 15.4062C14.2188 17.7812 16.1875 19.7812 18.625 20.9375L20.1875 19.0312C20.4062 18.7812 20.75 18.6875 21.0625 18.8125L24.5625 20.3125C24.9062 20.4688 25.0625 20.8438 25 21.1875L24.25 24.4375C24.1562 24.7812 23.875 25 23.5 25C15.5 25 9 18.5312 9 10.5C9 10.1562 9.25 9.875 9.59375 9.78125Z" fill="white"/>
</svg>
